<svg width="354" height="55" viewBox="0 0 354 55" fill="none" xmlns="http://www.w3.org/2000/svg">
<rect x="0.5" y="0.472778" width="353" height="54" rx="27" fill="#333333"/>
<path d="M126.972 25.0353C126.919 24.5391 126.695 24.1527 126.301 23.8762C125.911 23.5997 125.403 23.4614 124.778 23.4614C124.339 23.4614 123.962 23.5277 123.648 23.6603C123.333 23.7929 123.093 23.9728 122.926 24.2001C122.759 24.4273 122.674 24.6868 122.67 24.9785C122.67 25.2209 122.725 25.4311 122.835 25.6091C122.949 25.7872 123.102 25.9387 123.295 26.0637C123.489 26.1849 123.703 26.2872 123.938 26.3705C124.172 26.4538 124.409 26.5239 124.648 26.5807L125.739 26.8535C126.178 26.9557 126.6 27.094 127.006 27.2682C127.415 27.4425 127.78 27.6622 128.102 27.9273C128.428 28.1925 128.686 28.5126 128.875 28.8876C129.064 29.2626 129.159 29.7019 129.159 30.2057C129.159 30.8876 128.985 31.4879 128.636 32.0069C128.288 32.522 127.784 32.9254 127.125 33.2171C126.47 33.505 125.676 33.6489 124.744 33.6489C123.839 33.6489 123.053 33.5088 122.386 33.2285C121.723 32.9482 121.205 32.5391 120.83 32.0012C120.458 31.4633 120.258 30.808 120.227 30.0353H122.301C122.331 30.4406 122.456 30.7777 122.676 31.0466C122.896 31.3156 123.182 31.5163 123.534 31.6489C123.89 31.7815 124.288 31.8478 124.727 31.8478C125.186 31.8478 125.587 31.7796 125.932 31.6432C126.28 31.5031 126.553 31.3099 126.75 31.0637C126.947 30.8137 127.047 30.522 127.051 30.1887C127.047 29.8857 126.958 29.6357 126.784 29.4387C126.61 29.2379 126.366 29.0713 126.051 28.9387C125.741 28.8023 125.377 28.6811 124.96 28.5751L123.636 28.2341C122.678 27.9879 121.92 27.6148 121.364 27.1148C120.811 26.611 120.534 25.9425 120.534 25.1091C120.534 24.4235 120.72 23.8232 121.091 23.308C121.466 22.7929 121.975 22.3932 122.619 22.1091C123.263 21.8213 123.992 21.6773 124.807 21.6773C125.633 21.6773 126.356 21.8213 126.977 22.1091C127.602 22.3932 128.093 22.7891 128.449 23.2966C128.805 23.8004 128.989 24.38 129 25.0353H126.972ZM130.947 33.4728V24.7455H133.004V33.4728H130.947ZM131.982 23.5069C131.656 23.5069 131.375 23.3989 131.141 23.183C130.906 22.9633 130.788 22.7001 130.788 22.3932C130.788 22.0826 130.906 21.8194 131.141 21.6035C131.375 21.3838 131.656 21.2739 131.982 21.2739C132.311 21.2739 132.591 21.3838 132.822 21.6035C133.057 21.8194 133.175 22.0826 133.175 22.3932C133.175 22.7001 133.057 22.9633 132.822 23.183C132.591 23.3989 132.311 23.5069 131.982 23.5069ZM138.915 36.9273C138.176 36.9273 137.542 36.8269 137.011 36.6262C136.481 36.4292 136.055 36.1641 135.733 35.8307C135.411 35.4974 135.188 35.1281 135.062 34.7228L136.915 34.2739C136.998 34.4444 137.119 34.6129 137.278 34.7796C137.438 34.9501 137.652 35.0902 137.92 35.2001C138.193 35.3137 138.536 35.3705 138.949 35.3705C139.532 35.3705 140.015 35.2285 140.398 34.9444C140.78 34.6641 140.972 34.2019 140.972 33.558V31.9046H140.869C140.763 32.1167 140.608 32.3345 140.403 32.558C140.203 32.7815 139.936 32.969 139.602 33.1205C139.273 33.272 138.858 33.3478 138.358 33.3478C137.688 33.3478 137.08 33.1906 136.534 32.8762C135.992 32.558 135.561 32.0845 135.239 31.4557C134.92 30.8232 134.761 30.0315 134.761 29.0807C134.761 28.1224 134.92 27.3137 135.239 26.6546C135.561 25.9917 135.994 25.4898 136.54 25.1489C137.085 24.8042 137.693 24.6319 138.364 24.6319C138.875 24.6319 139.295 24.719 139.625 24.8932C139.958 25.0637 140.223 25.2701 140.42 25.5126C140.617 25.7512 140.767 25.9766 140.869 26.1887H140.983V24.7455H143.011V33.6148C143.011 34.361 142.833 34.9785 142.477 35.4671C142.121 35.9557 141.634 36.3213 141.017 36.5637C140.4 36.8061 139.699 36.9273 138.915 36.9273ZM138.932 31.7341C139.367 31.7341 139.739 31.6281 140.045 31.416C140.352 31.2038 140.585 30.8989 140.744 30.5012C140.903 30.1035 140.983 29.6262 140.983 29.0694C140.983 28.5201 140.903 28.0391 140.744 27.6262C140.589 27.2133 140.358 26.8932 140.051 26.666C139.748 26.4349 139.375 26.3194 138.932 26.3194C138.473 26.3194 138.091 26.4387 137.784 26.6773C137.477 26.916 137.246 27.2436 137.091 27.6603C136.936 28.0732 136.858 28.5429 136.858 29.0694C136.858 29.6035 136.936 30.0713 137.091 30.4728C137.25 30.8705 137.483 31.1811 137.79 31.4046C138.1 31.6243 138.481 31.7341 138.932 31.7341ZM147.176 28.3591V33.4728H145.119V24.7455H147.085V26.2285H147.188C147.388 25.7398 147.708 25.3516 148.148 25.0637C148.591 24.7758 149.138 24.6319 149.79 24.6319C150.392 24.6319 150.917 24.7607 151.364 25.0182C151.814 25.2758 152.163 25.6489 152.409 26.1376C152.659 26.6262 152.782 27.219 152.778 27.916V33.4728H150.722V28.2341C150.722 27.6508 150.57 27.1944 150.267 26.8648C149.968 26.5353 149.553 26.3705 149.023 26.3705C148.663 26.3705 148.343 26.4501 148.062 26.6091C147.786 26.7644 147.568 26.9898 147.409 27.2853C147.254 27.5807 147.176 27.9387 147.176 28.3591ZM158.838 33.4728V24.7455H160.895V33.4728H158.838ZM159.872 23.5069C159.546 23.5069 159.266 23.3989 159.031 23.183C158.796 22.9633 158.679 22.7001 158.679 22.3932C158.679 22.0826 158.796 21.8194 159.031 21.6035C159.266 21.3838 159.546 21.2739 159.872 21.2739C160.202 21.2739 160.482 21.3838 160.713 21.6035C160.948 21.8194 161.065 22.0826 161.065 22.3932C161.065 22.7001 160.948 22.9633 160.713 23.183C160.482 23.3989 160.202 23.5069 159.872 23.5069ZM165.067 28.3591V33.4728H163.01V24.7455H164.976V26.2285H165.078C165.279 25.7398 165.599 25.3516 166.038 25.0637C166.482 24.7758 167.029 24.6319 167.68 24.6319C168.283 24.6319 168.807 24.7607 169.254 25.0182C169.705 25.2758 170.054 25.6489 170.3 26.1376C170.55 26.6262 170.673 27.219 170.669 27.916V33.4728H168.612V28.2341C168.612 27.6508 168.461 27.1944 168.158 26.8648C167.858 26.5353 167.444 26.3705 166.913 26.3705C166.554 26.3705 166.233 26.4501 165.953 26.6091C165.677 26.7644 165.459 26.9898 165.3 27.2853C165.144 27.5807 165.067 27.9387 165.067 28.3591ZM178.53 33.4728L176.064 24.7455H178.161L179.695 30.8819H179.774L181.342 24.7455H183.416L184.984 30.8478H185.07L186.581 24.7455H188.683L186.212 33.4728H184.07L182.433 27.5751H182.314L180.678 33.4728H178.53ZM190.119 33.4728V24.7455H192.176V33.4728H190.119ZM191.153 23.5069C190.828 23.5069 190.547 23.3989 190.312 23.183C190.078 22.9633 189.96 22.7001 189.96 22.3932C189.96 22.0826 190.078 21.8194 190.312 21.6035C190.547 21.3838 190.828 21.2739 191.153 21.2739C191.483 21.2739 191.763 21.3838 191.994 21.6035C192.229 21.8194 192.347 22.0826 192.347 22.3932C192.347 22.7001 192.229 22.9633 191.994 23.183C191.763 23.3989 191.483 23.5069 191.153 23.5069ZM198.649 24.7455V26.3364H193.632V24.7455H198.649ZM194.871 22.6546H196.928V30.8478C196.928 31.1243 196.969 31.3364 197.053 31.4841C197.14 31.6281 197.253 31.7266 197.393 31.7796C197.534 31.8326 197.689 31.8591 197.859 31.8591C197.988 31.8591 198.106 31.8497 198.212 31.8307C198.321 31.8118 198.405 31.7947 198.462 31.7796L198.808 33.3876C198.698 33.4254 198.541 33.4671 198.337 33.5126C198.136 33.558 197.89 33.5845 197.598 33.5921C197.083 33.6072 196.619 33.5296 196.206 33.3591C195.793 33.1849 195.465 32.916 195.223 32.5523C194.984 32.1887 194.867 31.7341 194.871 31.1887V22.6546ZM202.614 28.3591V33.4728H200.557V21.8364H202.568V26.2285H202.67C202.875 25.736 203.191 25.3478 203.619 25.0637C204.051 24.7758 204.6 24.6319 205.267 24.6319C205.873 24.6319 206.402 24.7588 206.852 25.0126C207.303 25.2663 207.652 25.6376 207.898 26.1262C208.148 26.6148 208.273 27.2114 208.273 27.916V33.4728H206.216V28.2341C206.216 27.647 206.064 27.1906 205.761 26.8648C205.462 26.5353 205.042 26.3705 204.5 26.3705C204.136 26.3705 203.811 26.4501 203.523 26.6091C203.239 26.7644 203.015 26.9898 202.852 27.2853C202.693 27.5807 202.614 27.9387 202.614 28.3591ZM222.224 25.5523C222.13 25.2455 221.999 24.9709 221.832 24.7285C221.67 24.4822 221.473 24.272 221.241 24.0978C221.014 23.9235 220.753 23.7929 220.457 23.7057C220.162 23.6148 219.84 23.5694 219.491 23.5694C218.866 23.5694 218.31 23.7266 217.821 24.041C217.332 24.3554 216.948 24.8175 216.668 25.4273C216.391 26.0334 216.253 26.772 216.253 27.6432C216.253 28.522 216.391 29.2663 216.668 29.8762C216.944 30.486 217.329 30.9501 217.821 31.2682C218.313 31.5826 218.885 31.7398 219.537 31.7398C220.128 31.7398 220.639 31.6262 221.071 31.3989C221.507 31.1716 221.842 30.8497 222.077 30.433C222.312 30.0126 222.429 29.5201 222.429 28.9557L222.906 29.0296H219.747V27.3819H224.469V28.7796C224.469 29.7758 224.257 30.6376 223.832 31.3648C223.408 32.0921 222.825 32.6527 222.082 33.0466C221.34 33.4368 220.488 33.6319 219.526 33.6319C218.454 33.6319 217.512 33.3913 216.702 32.9103C215.895 32.4254 215.264 31.7379 214.81 30.8478C214.359 29.9538 214.134 28.8932 214.134 27.666C214.134 26.7266 214.266 25.8876 214.531 25.1489C214.8 24.4103 215.175 23.7834 215.656 23.2682C216.137 22.7493 216.702 22.3554 217.349 22.0864C217.997 21.8137 218.702 21.6773 219.463 21.6773C220.107 21.6773 220.707 21.772 221.264 21.9614C221.821 22.147 222.315 22.4122 222.747 22.7569C223.183 23.1016 223.541 23.5107 223.821 23.9841C224.101 24.4576 224.285 24.9804 224.372 25.5523H222.224ZM230.223 33.6432C229.371 33.6432 228.632 33.4557 228.007 33.0807C227.382 32.7057 226.897 32.1811 226.553 31.5069C226.212 30.8326 226.041 30.0447 226.041 29.1432C226.041 28.2417 226.212 27.4519 226.553 26.7739C226.897 26.0959 227.382 25.5694 228.007 25.1944C228.632 24.8194 229.371 24.6319 230.223 24.6319C231.075 24.6319 231.814 24.8194 232.439 25.1944C233.064 25.5694 233.547 26.0959 233.888 26.7739C234.232 27.4519 234.405 28.2417 234.405 29.1432C234.405 30.0447 234.232 30.8326 233.888 31.5069C233.547 32.1811 233.064 32.7057 232.439 33.0807C231.814 33.4557 231.075 33.6432 230.223 33.6432ZM230.234 31.9955C230.696 31.9955 231.083 31.8686 231.393 31.6148C231.704 31.3572 231.935 31.0126 232.087 30.5807C232.242 30.1489 232.32 29.6679 232.32 29.1376C232.32 28.6035 232.242 28.1205 232.087 27.6887C231.935 27.2531 231.704 26.9065 231.393 26.6489C231.083 26.3913 230.696 26.2626 230.234 26.2626C229.761 26.2626 229.367 26.3913 229.053 26.6489C228.742 26.9065 228.509 27.2531 228.354 27.6887C228.202 28.1205 228.126 28.6035 228.126 29.1376C228.126 29.6679 228.202 30.1489 228.354 30.5807C228.509 31.0126 228.742 31.3572 229.053 31.6148C229.367 31.8686 229.761 31.9955 230.234 31.9955ZM239.957 33.6432C239.105 33.6432 238.366 33.4557 237.741 33.0807C237.116 32.7057 236.632 32.1811 236.287 31.5069C235.946 30.8326 235.776 30.0447 235.776 29.1432C235.776 28.2417 235.946 27.4519 236.287 26.7739C236.632 26.0959 237.116 25.5694 237.741 25.1944C238.366 24.8194 239.105 24.6319 239.957 24.6319C240.81 24.6319 241.548 24.8194 242.173 25.1944C242.798 25.5694 243.281 26.0959 243.622 26.7739C243.967 27.4519 244.139 28.2417 244.139 29.1432C244.139 30.0447 243.967 30.8326 243.622 31.5069C243.281 32.1811 242.798 32.7057 242.173 33.0807C241.548 33.4557 240.81 33.6432 239.957 33.6432ZM239.969 31.9955C240.431 31.9955 240.817 31.8686 241.128 31.6148C241.438 31.3572 241.67 31.0126 241.821 30.5807C241.976 30.1489 242.054 29.6679 242.054 29.1376C242.054 28.6035 241.976 28.1205 241.821 27.6887C241.67 27.2531 241.438 26.9065 241.128 26.6489C240.817 26.3913 240.431 26.2626 239.969 26.2626C239.495 26.2626 239.101 26.3913 238.787 26.6489C238.476 26.9065 238.243 27.2531 238.088 27.6887C237.937 28.1205 237.861 28.6035 237.861 29.1376C237.861 29.6679 237.937 30.1489 238.088 30.5807C238.243 31.0126 238.476 31.3572 238.787 31.6148C239.101 31.8686 239.495 31.9955 239.969 31.9955ZM249.68 36.9273C248.942 36.9273 248.307 36.8269 247.777 36.6262C247.247 36.4292 246.821 36.1641 246.499 35.8307C246.177 35.4974 245.953 35.1281 245.828 34.7228L247.68 34.2739C247.764 34.4444 247.885 34.6129 248.044 34.7796C248.203 34.9501 248.417 35.0902 248.686 35.2001C248.959 35.3137 249.302 35.3705 249.714 35.3705C250.298 35.3705 250.781 35.2285 251.163 34.9444C251.546 34.6641 251.737 34.2019 251.737 33.558V31.9046H251.635C251.529 32.1167 251.374 32.3345 251.169 32.558C250.968 32.7815 250.701 32.969 250.368 33.1205C250.038 33.272 249.624 33.3478 249.124 33.3478C248.453 33.3478 247.845 33.1906 247.3 32.8762C246.758 32.558 246.326 32.0845 246.004 31.4557C245.686 30.8232 245.527 30.0315 245.527 29.0807C245.527 28.1224 245.686 27.3137 246.004 26.6546C246.326 25.9917 246.76 25.4898 247.305 25.1489C247.851 24.8042 248.459 24.6319 249.129 24.6319C249.641 24.6319 250.061 24.719 250.391 24.8932C250.724 25.0637 250.989 25.2701 251.186 25.5126C251.383 25.7512 251.533 25.9766 251.635 26.1887H251.749V24.7455H253.777V33.6148C253.777 34.361 253.599 34.9785 253.243 35.4671C252.887 35.9557 252.4 36.3213 251.783 36.5637C251.165 36.8061 250.464 36.9273 249.68 36.9273ZM249.697 31.7341C250.133 31.7341 250.504 31.6281 250.811 31.416C251.118 31.2038 251.351 30.8989 251.51 30.5012C251.669 30.1035 251.749 29.6262 251.749 29.0694C251.749 28.5201 251.669 28.0391 251.51 27.6262C251.355 27.2133 251.124 26.8932 250.817 26.666C250.514 26.4349 250.141 26.3194 249.697 26.3194C249.239 26.3194 248.857 26.4387 248.55 26.6773C248.243 26.916 248.012 27.2436 247.857 27.6603C247.701 28.0732 247.624 28.5429 247.624 29.0694C247.624 29.6035 247.701 30.0713 247.857 30.4728C248.016 30.8705 248.249 31.1811 248.555 31.4046C248.866 31.6243 249.247 31.7341 249.697 31.7341ZM257.942 21.8364V33.4728H255.885V21.8364H257.942ZM263.92 33.6432C263.045 33.6432 262.29 33.4614 261.653 33.0978C261.021 32.7304 260.534 32.2114 260.193 31.541C259.852 30.8667 259.682 30.0732 259.682 29.1603C259.682 28.2626 259.852 27.4747 260.193 26.7966C260.538 26.1148 261.019 25.5845 261.636 25.2057C262.254 24.8232 262.979 24.6319 263.812 24.6319C264.35 24.6319 264.858 24.719 265.335 24.8932C265.816 25.0637 266.241 25.3288 266.608 25.6887C266.979 26.0485 267.271 26.5069 267.483 27.0637C267.695 27.6167 267.801 28.2758 267.801 29.041V29.6716H260.648V28.2853H265.83C265.826 27.8913 265.741 27.541 265.574 27.2341C265.407 26.9235 265.174 26.6792 264.875 26.5012C264.58 26.3232 264.235 26.2341 263.841 26.2341C263.42 26.2341 263.051 26.3364 262.733 26.541C262.415 26.7417 262.167 27.0069 261.989 27.3364C261.814 27.6622 261.725 28.0201 261.722 28.4103V29.6205C261.722 30.1281 261.814 30.5637 262 30.9273C262.186 31.2872 262.445 31.5637 262.778 31.7569C263.112 31.9463 263.502 32.041 263.949 32.041C264.248 32.041 264.519 31.9993 264.761 31.916C265.004 31.8288 265.214 31.7019 265.392 31.5353C265.57 31.3686 265.705 31.1622 265.795 30.916L267.716 31.1319C267.595 31.6394 267.364 32.0826 267.023 32.4614C266.686 32.8364 266.254 33.1281 265.727 33.3364C265.201 33.541 264.598 33.6432 263.92 33.6432Z" fill="white"/>
<g clip-path="url(#clip0_7_2241)">
<g clip-path="url(#clip1_7_2241)">
<path d="M104.674 27.1832C104.674 26.4044 104.612 25.836 104.478 25.2466H95.7725V28.762H100.883C100.78 29.6357 100.223 30.9513 98.9869 31.8354L98.9695 31.9531L101.722 34.1316L101.913 34.1511C103.664 32.4986 104.674 30.0672 104.674 27.1832Z" fill="#4285F4"/>
<path d="M95.7726 36.4456C98.2761 36.4456 100.378 35.6036 101.913 34.1511L98.987 31.8355C98.2041 32.3933 97.1532 32.7828 95.7726 32.7828C93.3206 32.7828 91.2395 31.1303 90.4976 28.8463L90.3889 28.8557L87.5267 31.1187L87.4893 31.225C89.014 34.3195 92.1461 36.4456 95.7726 36.4456Z" fill="#34A853"/>
<path d="M90.4974 28.8463C90.3017 28.2569 90.1884 27.6254 90.1884 26.9728C90.1884 26.3202 90.3017 25.6887 90.4871 25.0993L90.4819 24.9738L87.5839 22.6744L87.489 22.7205C86.8606 24.0046 86.5 25.4466 86.5 26.9728C86.5 28.499 86.8606 29.9409 87.489 31.225L90.4974 28.8463Z" fill="#FBBC05"/>
<path d="M95.7726 21.1627C97.5138 21.1627 98.6882 21.931 99.3579 22.5731L101.975 19.9628C100.368 18.4366 98.2761 17.4999 95.7726 17.4999C92.1461 17.4999 89.014 19.626 87.4893 22.7204L90.4873 25.0992C91.2395 22.8152 93.3206 21.1627 95.7726 21.1627Z" fill="#EB4335"/>
</g>
</g>
<defs>
<clipPath id="clip0_7_2241">
<rect width="20" height="20" fill="white" transform="translate(85.5 17.4728)"/>
</clipPath>
<clipPath id="clip1_7_2241">
<rect x="86.5" y="17.4728" width="18.1739" height="19" rx="9.08696" fill="white"/>
</clipPath>
</defs>
</svg>
