<svg width="111" height="24" viewBox="0 0 111 24" fill="none" xmlns="http://www.w3.org/2000/svg">
<path d="M0.143311 0.279297H33.3691L19.8556 23.7636H15.1666L8.94765 8.29519H13.7194L18.1729 19.0558L26.4551 4.02467H2.16652L0.143311 0.279297Z" fill="#81EBAB"/>
<path d="M77.1865 12.554C77.5023 11.6663 77.9589 10.89 78.5583 10.2306C79.1578 9.57118 79.8684 9.06084 80.687 8.70144L80.6887 8.70066L80.6904 8.69998C81.5319 8.33931 82.4565 8.16229 83.4584 8.16229C84.5019 8.16229 85.423 8.36905 86.2056 8.80103C86.8673 9.15769 87.4219 9.64806 87.8676 10.2662L91.2301 7.5861C90.5907 6.62005 89.6761 5.86176 88.4684 5.31437C87.1304 4.70791 85.5849 4.39917 83.8225 4.39917C82.0373 4.39917 80.4176 4.68136 78.9586 5.23961C77.5149 5.79912 76.2756 6.59062 75.2353 7.61293L75.234 7.61423L75.2327 7.61549C74.192 8.62026 73.3835 9.81401 72.8071 11.201C72.2324 12.5839 71.9426 14.0975 71.9426 15.7469C71.9426 17.3773 72.3268 18.8031 73.0849 20.0377C73.8433 21.2541 74.9208 22.2115 76.3317 22.9082C77.7582 23.6034 79.4391 23.9579 81.3859 23.9579C83.0971 23.9579 84.6423 23.6942 86.0264 23.1733C87.2847 22.6825 88.4153 21.8806 89.4164 20.7559L86.7241 18.1102C86.0796 18.7864 85.3732 19.2959 84.6046 19.628C83.7495 20.0056 82.8528 20.1948 81.9181 20.1948C80.8792 20.1948 79.9556 20.0085 79.1597 19.6207L79.1539 19.6179L79.1482 19.6149C78.3751 19.208 77.7665 18.6429 77.3333 17.9209L77.3297 17.9149L77.3263 17.9089C76.9141 17.1668 76.714 16.3208 76.714 15.3829C76.714 14.3695 76.8699 13.4253 77.1865 12.554Z" fill="#81EBAB"/>
<path fill-rule="evenodd" clip-rule="evenodd" d="M32.9304 19.7577H41.9273L42.713 23.5666H47.3533L42.3948 4.79199H36.7624L25.9114 23.5666H30.7364L32.9304 19.7577ZM39.5551 8.25718L41.2551 16.4987H34.8077L39.5551 8.25718Z" fill="#81EBAB"/>
<path d="M64.2483 16.2313L66.5313 4.79199H71.118L67.3631 23.5666H63.3727L56.4611 12.0962L54.1719 23.5666H49.5852L53.3401 4.79199H57.3309L64.2483 16.2313Z" fill="#81EBAB"/>
<path d="M96.922 20.1115L97.7962 15.6968H106.524L107.173 12.3817H98.452L99.2705 8.24704H109.159L109.859 4.79199H95.3585L91.6042 23.5666H106.472L107.195 20.1115H96.922Z" fill="#81EBAB"/>
</svg>
